<?xml version="1.0" encoding="iso-8859-1"?>
<!-- Generator: Adobe Illustrator 19.0.0, SVG Export Plug-In . SVG Version: 6.00 Build 0)  -->
<svg version="1.1" id="Capa_1" xmlns="http://www.w3.org/2000/svg" xmlns:xlink="http://www.w3.org/1999/xlink" x="0px" y="0px"
	 viewBox="0 0 512 512" style="enable-background:new 0 0 512 512;" xml:space="preserve">
<g>
	<g>
		<path d="M497,270h-15v-45c0-8.284-6.716-15-15-15s-15,6.716-15,15v45h-30v-45c0-8.284-6.716-15-15-15s-15,6.716-15,15v45h-15
			c-8.284,0-15,6.716-15,15v60c0,36.219,25.808,66.522,60,73.491V435c0,25.477-20.607,47-45,47H165
			c-19.397,0-36.387-13.615-42.539-32H225c8.284,0,15-6.716,15-15v-31.25c0-37.741-28.501-68.932-65.107-73.227
			c-7.92-19.213-10.6-40.144-8.04-60.523H195c24.813,0,45-20.187,45-45v-19.237c27.245-4.746,53.817-13.425,78.538-25.763H377h0.001
			c0.002,0,0.005,0,0.007,0c2.065-0.001,4.365-0.482,6.434-1.469c0.088-0.042,0.179-0.071,0.266-0.114l60-30
			C448.79,145.875,452,140.682,452,135v-15h45c8.284,0,15-6.716,15-15s-6.716-15-15-15h-45V75c0-5.682-3.21-10.875-8.292-13.417
			l-60-30c-1.944-0.972-4.244-1.566-6.622-1.579c-0.029,0-0.057-0.004-0.086-0.004h-58.462C279.215,10.374,235.209,0,191.262,0H105
			C47.103,0,0,47.103,0,105c0,35.66,17.873,67.219,45.127,86.206l-29.379,58.758C5.445,270.569,0,293.636,0,316.672
			C0,329.682,0,421.463,0,435c0,8.284,6.716,15,15,15h76.47c6.693,33.85,36.434,62,73.53,62h212c41.472,0,75-35.522,75-77v-16.509
			c34.192-6.968,60-37.271,60-73.491v-60C512,276.716,505.284,270,497,270z M392,69.271l30,15v41.458l-30,15V69.271z M330,60h32v90
			h-32V60z M195,240h-20.322c2.29-5.634,2.859-6.533,14.592-30c6.36,0,12.302-0.071,20.729-0.634V225H210
			C210,233.271,203.271,240,195,240z M30,105c0-41.355,33.645-75,75-75h86.262c37.417,0,74.882,8.403,108.738,24.348v101.304
			C266.144,171.597,228.679,180,191.262,180H105C63.645,180,30,146.355,30,105z M30,316.672c0-18.403,4.35-36.831,12.581-53.292
			l29.359-58.717C82.339,208.121,93.454,210,105,210h50.729l-4.146,8.292c-17.248,34.496-20.366,74.854-8.772,111.708H30V316.672z
			 M30,420v-60h135h1.25c24.124,0,43.75,19.626,43.75,43.75V420H30z M482,345c0,24.813-20.187,45-45,45s-45-20.187-45-45v-45h90V345
			z"/>
	</g>
</g>
<g>
	<g>
		<path d="M150,60H90c-8.284,0-15,6.716-15,15s6.716,15,15,15h60c8.284,0,15-6.716,15-15S158.284,60,150,60z"/>
	</g>
</g>
<g>
	<g>
		<path d="M150,120H90c-8.284,0-15,6.716-15,15s6.716,15,15,15h60c8.284,0,15-6.716,15-15S158.284,120,150,120z"/>
	</g>
</g>
<g>
	<g>
		<circle cx="105" cy="285" r="15"/>
	</g>
</g>
<g>
</g>
<g>
</g>
<g>
</g>
<g>
</g>
<g>
</g>
<g>
</g>
<g>
</g>
<g>
</g>
<g>
</g>
<g>
</g>
<g>
</g>
<g>
</g>
<g>
</g>
<g>
</g>
<g>
</g>
</svg>
