<?xml version="1.0" encoding="iso-8859-1"?>
<!-- Generator: Adobe Illustrator 19.0.0, SVG Export Plug-In . SVG Version: 6.00 Build 0)  -->
<svg version="1.1" id="Capa_1" xmlns="http://www.w3.org/2000/svg" xmlns:xlink="http://www.w3.org/1999/xlink" x="0px" y="0px"
	 viewBox="0 0 512 512" style="enable-background:new 0 0 512 512;" xml:space="preserve">
<g>
	<g>
		<path d="M507.606,230.478l-29.184-29.184c-7.927-7.927-18.857-11.714-30.932-10.989c-0.373,0.011-0.746,0.027-1.117,0.066
			c-3.008,0.249-6.081,0.77-9.195,1.583c-5.145,1.345-10.674-0.152-14.427-3.904c-5.849-5.849-5.849-15.366,0-21.214
			c5.857-5.858,5.857-15.356,0-21.214L316.679,39.55c-52.638-52.639-138.288-52.638-190.927,0c-4.29,4.29-5.573,10.742-3.252,16.348
			c2.322,5.605,7.792,9.26,13.859,9.26c59.885,0,108.967,47.123,112.12,106.235l-58.651,58.65L30.434,365.402
			c-37.95,30.862-40.823,87.84-6.285,122.378c34.643,34.644,91.716,31.589,122.494-6.429c0.078-0.096,0.154-0.192,0.229-0.29
			L274.94,314.646l62.93-62.93c0.001-0.001,0.003-0.002,0.005-0.004c0,0,0.001-0.001,0.002-0.002c0.003-0.003,0.007-0.007,0.01-0.01
			c0.003-0.002,0.005-0.004,0.007-0.007c5.849-5.848,15.366-5.848,21.214,0c3.752,3.752,5.248,9.28,3.904,14.428
			c-0.814,3.118-1.335,6.195-1.583,9.206c-0.035,0.339-0.048,0.679-0.061,1.02c-0.749,12.111,3.038,23.073,10.984,31.019
			l29.184,29.184c5.857,5.858,15.357,5.858,21.214,0l84.857-84.857C513.464,245.833,513.464,236.336,507.606,230.478z
			 M123.215,462.606c-19.697,24.176-55.83,25.98-77.852,3.958c-22.063-22.063-20.214-58.285,4.092-77.962
			c0.091-0.074,0.182-0.149,0.271-0.225l149.446-126.91l44.549,44.55L123.215,462.606z M263.644,283.512l-42.428-42.428
			l42.428-42.428c4.864,4.864,37.859,37.859,42.428,42.428L263.644,283.512z M380.322,230.478
			c-13.835-13.834-34.5-16.756-51.217-8.789c-5.264-5.264-42.569-42.568-50.599-50.599
			c-2.748-62.166-45.571-114.098-103.208-130.517c39.14-18.984,87.72-12.255,120.168,20.192l97.281,97.282
			c-7.969,16.725-5.039,37.389,8.789,51.217c3.661,3.661,7.89,6.592,12.453,8.761l-24.906,24.906
			C386.914,238.368,383.983,234.139,380.322,230.478z M412.143,304.727c-20.359-20.359-19.702-19.205-20.47-21.958l62.155-62.155
			c2.752,0.768,1.592,0.104,21.958,20.471L412.143,304.727z"/>
	</g>
</g>
<g>
</g>
<g>
</g>
<g>
</g>
<g>
</g>
<g>
</g>
<g>
</g>
<g>
</g>
<g>
</g>
<g>
</g>
<g>
</g>
<g>
</g>
<g>
</g>
<g>
</g>
<g>
</g>
<g>
</g>
</svg>
