<?xml version="1.0" encoding="iso-8859-1"?>
<!-- Generator: Adobe Illustrator 19.0.0, SVG Export Plug-In . SVG Version: 6.00 Build 0)  -->
<svg version="1.1" id="Capa_1" xmlns="http://www.w3.org/2000/svg" xmlns:xlink="http://www.w3.org/1999/xlink" x="0px" y="0px"
	 viewBox="0 0 511.999 511.999" style="enable-background:new 0 0 511.999 511.999;" xml:space="preserve">
<g>
	<g>
		<path d="M321.04,196.91V87.684c21.811-2.591,38.783-21.187,38.783-43.683C359.824,19.74,340.084,0,315.82,0H196.179
			c-24.263,0-44.001,19.74-44.001,44.001c0,22.494,16.969,41.088,38.776,43.682v109.23c-59.757,25.78-99.196,85.09-99.196,150.845
			c0,90.563,73.678,164.241,164.242,164.241c90.563,0,164.241-73.678,164.241-164.241C420.242,282,380.8,222.691,321.04,196.91z
			 M182.532,44.001c0-7.525,6.123-13.647,13.647-13.647H315.82c7.526,0,13.648,6.123,13.648,13.647
			c0,7.526-6.123,13.648-13.648,13.648h-9.958h-99.731h-9.952C188.655,57.65,182.532,51.527,182.532,44.001z M211.208,221.554
			c6.055-2.149,10.1-7.878,10.1-14.303V88.005h69.376v119.244c0,6.426,4.046,12.155,10.101,14.303
			c36.993,13.13,65.546,41.59,79.56,76.689c-56.6,20.116-99.371,8.434-140.827-2.894c-32.901-8.991-66.658-18.215-103.002-7.898
			C151.731,257.354,178.088,233.31,211.208,221.554z M256,481.645c-73.826,0-133.887-60.061-133.887-133.886
			c0-7.575,0.662-15.039,1.901-22.342c36.146-20.266,67.862-11.622,107.504-0.79c26.438,7.225,54.846,14.988,87.501,14.988
			c21.126,0,44.034-3.26,69.329-12.007c1.008,6.603,1.54,13.333,1.54,20.151C389.887,421.583,329.825,481.645,256,481.645z"/>
	</g>
</g>
<g>
	<g>
		<path d="M204.564,337.073c-24.058,0-43.632,19.573-43.632,43.631s19.574,43.632,43.632,43.632s43.631-19.574,43.631-43.632
			S228.623,337.073,204.564,337.073z M204.564,393.981c-7.321,0-13.277-5.957-13.277-13.277s5.957-13.276,13.277-13.276
			c7.321,0,13.276,5.956,13.276,13.276S211.885,393.981,204.564,393.981z"/>
	</g>
</g>
<g>
	<g>
		<path d="M318.38,376.47c-7.939,0-15.545,6.981-15.177,15.177c0.368,8.223,6.669,15.177,15.177,15.177
			c7.939,0,15.545-6.981,15.177-15.177C333.189,383.425,326.889,376.47,318.38,376.47z"/>
	</g>
</g>
<g>
</g>
<g>
</g>
<g>
</g>
<g>
</g>
<g>
</g>
<g>
</g>
<g>
</g>
<g>
</g>
<g>
</g>
<g>
</g>
<g>
</g>
<g>
</g>
<g>
</g>
<g>
</g>
<g>
</g>
</svg>
