<?xml version="1.0" encoding="iso-8859-1"?>
<!-- Generator: Adobe Illustrator 19.0.0, SVG Export Plug-In . SVG Version: 6.00 Build 0)  -->
<svg version="1.1" id="Capa_1" xmlns="http://www.w3.org/2000/svg" xmlns:xlink="http://www.w3.org/1999/xlink" x="0px" y="0px"
	 viewBox="0 0 512 512" style="enable-background:new 0 0 512 512;" xml:space="preserve">
<g>
	<g>
		<path d="M443.077,142.769c-8.144,0-14.769-6.625-14.769-14.769V14.769C428.308,6.613,421.695,0,413.538,0h-78.769
			C326.613,0,320,6.613,320,14.769v5.08c-26.411,15.813-48.953,24.459-64,24.459c-14.814,0-37.867-8.854-64-24.464v-5.075
			C192,6.613,185.387,0,177.231,0H98.462c-8.157,0-14.769,6.613-14.769,14.769V128c0,8.144-6.625,14.769-14.769,14.769
			c-24.431,0-44.308,19.876-44.308,44.308v310.154c0,8.157,6.613,14.769,14.769,14.769h177.231c8.157,0,14.769-6.613,14.769-14.769
			v-9.846h49.231v9.846c0,8.157,6.613,14.769,14.769,14.769h177.231c8.157,0,14.769-6.613,14.769-14.769V187.077
			C487.385,162.646,467.508,142.769,443.077,142.769z M201.846,482.462H54.154V448h147.692V482.462z M201.846,418.462H54.154
			v-29.538h147.692V418.462z M201.846,359.385H54.154v-29.539h147.692V359.385z M201.846,300.308H54.154V187.077
			c0-8.144,6.625-14.769,14.769-14.769c24.431,0,44.308-19.876,44.308-44.308V29.538h49.231v32.918
			c0,37.776,13.938,73.406,39.385,101.021V300.308z M284.942,147.096c-2.77,2.77-4.326,6.526-4.326,10.443v300.308h-49.231V157.538
			c0-3.918-1.557-7.673-4.326-10.444c-4.239-4.239-8.121-8.739-11.63-13.466c-0.585-0.788-1.16-1.581-1.724-2.382
			C199.599,111.245,192,87.435,192,62.456v-8.715c20.526,10.833,43.95,20.105,64,20.105c20.049,0,43.474-9.272,64-20.105v8.715
			C320,94.429,307.549,124.487,284.942,147.096z M457.846,482.462H310.154V448h147.692V482.462z M457.846,418.462H310.154v-29.538
			h147.692V418.462z M457.846,359.385H310.154v-29.539h147.692V359.385z M457.846,300.308H310.154V163.476
			c21.471-23.3,34.748-52.307,38.373-83.492c0.134-1.155,0.255-2.313,0.363-3.474c0.216-2.322,0.377-4.654,0.485-6.998
			c0.108-2.343,0.162-4.696,0.162-7.056V29.538h49.231V128c0,24.431,19.876,44.308,44.308,44.308
			c8.144,0,14.769,6.625,14.769,14.769V300.308z"/>
	</g>
</g>
<g>
</g>
<g>
</g>
<g>
</g>
<g>
</g>
<g>
</g>
<g>
</g>
<g>
</g>
<g>
</g>
<g>
</g>
<g>
</g>
<g>
</g>
<g>
</g>
<g>
</g>
<g>
</g>
<g>
</g>
</svg>
