<?xml version="1.0" encoding="iso-8859-1"?>
<!-- Generator: Adobe Illustrator 19.0.0, SVG Export Plug-In . SVG Version: 6.00 Build 0)  -->
<svg version="1.1" id="Capa_1" xmlns="http://www.w3.org/2000/svg" xmlns:xlink="http://www.w3.org/1999/xlink" x="0px" y="0px"
	 viewBox="0 0 512 512" style="enable-background:new 0 0 512 512;" xml:space="preserve">
<g>
	<g>
		<circle cx="105" cy="165" r="15"/>
	</g>
</g>
<g>
	<g>
		<path d="M466.178,396.592l13.481-67.405C498.33,323.706,512,306.419,512,286c0-24.813-20.187-45-45-45h-15V60
			c0-33.084-26.916-60-60-60s-60,26.916-60,60v15c0,8.284,6.716,15,15,15s15-6.716,15-15V60c0-16.542,13.458-30,30-30
			s30,13.458,30,30v120h-15c-8.284,0-15,6.716-15,15s6.716,15,15,15h15v31c-10.184,0-366.916,0-377,0c-24.813,0-45,20.187-45,45
			c0,20.419,13.67,37.706,32.34,43.188l13.481,67.405c5.473,27.366,21.172,50.567,42.518,65.855L68.787,482H45
			c-8.284,0-15,6.716-15,15s6.716,15,15,15h30c3.978,0,7.793-1.581,10.606-4.394l30.837-30.837
			c10.248,3.392,21.127,5.23,32.339,5.23h214.436c11.213,0,22.091-1.839,32.339-5.23l30.837,30.837
			C429.207,510.419,433.022,512,437,512h30c8.284,0,15-6.716,15-15s-6.716-15-15-15h-23.787l-19.553-19.553
			C445.006,447.159,460.705,423.958,466.178,396.592z M240,271h227c8.271,0,15,6.729,15,15s-6.729,15-15,15H240V271z M150,271h60v90
			h-60V271z M45,301c-8.271,0-15-6.729-15-15s6.729-15,15-15h75v30H45z M363.218,452H148.782c-35.511,0-66.44-25.777-73.543-61.292
			L63.297,331H120v45c0,8.284,6.716,15,15,15h90c8.284,0,15-6.716,15-15v-45h208.703l-11.942,59.708
			C429.658,426.223,398.729,452,363.218,452z"/>
	</g>
</g>
<g>
	<g>
		<path d="M105,0C80.187,0,60,20.187,60,45s20.187,45,45,45s45-20.187,45-45S129.813,0,105,0z M105,60c-8.271,0-15-6.729-15-15
			s6.729-15,15-15s15,6.729,15,15S113.271,60,105,60z"/>
	</g>
</g>
<g>
	<g>
		<path d="M210,90c-33.084,0-60,26.916-60,60s26.916,60,60,60s60-26.916,60-60S243.084,90,210,90z M210,180
			c-16.542,0-30-13.458-30-30s13.458-30,30-30s30,13.458,30,30S226.542,180,210,180z"/>
	</g>
</g>
<g>
</g>
<g>
</g>
<g>
</g>
<g>
</g>
<g>
</g>
<g>
</g>
<g>
</g>
<g>
</g>
<g>
</g>
<g>
</g>
<g>
</g>
<g>
</g>
<g>
</g>
<g>
</g>
<g>
</g>
</svg>
