<?xml version="1.0" encoding="iso-8859-1"?>
<!-- Generator: Adobe Illustrator 19.0.0, SVG Export Plug-In . SVG Version: 6.00 Build 0)  -->
<svg version="1.1" id="Capa_1" xmlns="http://www.w3.org/2000/svg" xmlns:xlink="http://www.w3.org/1999/xlink" x="0px" y="0px"
	 viewBox="0 0 512 512" style="enable-background:new 0 0 512 512;" xml:space="preserve">
<g>
	<g>
		<path d="M507.546,23.144c-3.147-3.147-7.515-4.749-11.958-4.406c-4.091,0.326-96.163,7.893-145.1,31.253
			c-29.345-13.116-61.39-20.02-94.497-20.02c-33.104,0-65.145,6.903-94.489,20.017c-48.939-23.357-140.999-30.922-145.09-31.25
			c-4.435-0.347-8.809,1.257-11.958,4.406s-4.759,7.519-4.406,11.958c0.095,1.194,2.396,29.629,8.281,63.339
			c7.181,41.133,16.445,71.49,27.586,90.459c-7.63,23.161-11.593,47.645-11.593,72.739c0,61.881,24.098,120.058,67.854,163.815
			c43.757,43.756,101.935,67.854,163.815,67.854c61.88,0,120.058-24.098,163.814-67.854
			c43.756-43.757,67.854-101.935,67.854-163.815c0-25.086-3.962-49.564-11.587-72.718c11.144-18.967,20.413-49.326,27.596-90.467
			c5.887-33.715,8.188-62.157,8.284-63.352C512.306,30.663,510.696,26.292,507.546,23.144z M32.172,50.904
			c23.033,2.651,63.492,8.335,94.808,18.238c-12.369,8.326-24.025,17.905-34.804,28.683c-16.012,16.012-29.379,33.961-39.907,53.31
			C41.941,120.994,35.377,78.817,32.172,50.904z M255.991,462.9c-110.975,0-201.261-90.285-201.261-201.261
			S145.015,60.38,255.991,60.38s201.26,90.284,201.26,201.26S366.967,462.9,255.991,462.9z M459.726,151.156
			c-10.532-19.357-23.902-37.314-39.92-53.331c-10.776-10.776-22.431-20.354-34.798-28.679c31.317-9.904,71.785-15.591,94.82-18.242
			C476.625,78.825,470.057,121.014,459.726,151.156z"/>
	</g>
</g>
<g>
	<g>
		<path d="M137.315,219.47c-7.953,0-15.573,6.993-15.205,15.205c0.369,8.238,6.681,15.205,15.205,15.205
			c7.953,0,15.572-6.993,15.205-15.205C152.15,226.437,145.838,219.47,137.315,219.47z"/>
	</g>
</g>
<g>
	<g>
		<path d="M374.669,219.47c-7.953,0-15.573,6.993-15.205,15.205c0.369,8.238,6.681,15.205,15.205,15.205
			c7.953,0,15.573-6.993,15.205-15.205C389.504,226.437,383.192,219.47,374.669,219.47z"/>
	</g>
</g>
<g>
	<g>
		<path d="M299.476,261.881h-86.968c-38.349,0-69.547,31.198-69.547,69.546v6.986c0,38.348,31.198,69.546,69.547,69.546h86.968
			c38.347,0,69.546-31.198,69.546-69.546v-6.986C369.021,293.08,337.823,261.881,299.476,261.881z M338.612,338.412
			c0,21.58-17.556,39.136-39.136,39.136h-86.968c-21.581,0-39.137-17.557-39.137-39.136v-6.986c0-21.58,17.556-39.136,39.137-39.136
			h86.968c21.58,0,39.136,17.556,39.136,39.136V338.412z"/>
	</g>
</g>
<g>
	<g>
		<path d="M214.673,319.716c-7.953,0-15.573,6.993-15.205,15.205c0.369,8.238,6.681,15.205,15.205,15.205
			c7.953,0,15.573-6.993,15.205-15.205C229.508,326.682,223.196,319.716,214.673,319.716z"/>
	</g>
</g>
<g>
	<g>
		<path d="M297.31,319.716c-7.953,0-15.573,6.993-15.205,15.205c0.369,8.238,6.681,15.205,15.205,15.205
			c7.953,0,15.573-6.993,15.205-15.205C312.145,326.682,305.834,319.716,297.31,319.716z"/>
	</g>
</g>
<g>
</g>
<g>
</g>
<g>
</g>
<g>
</g>
<g>
</g>
<g>
</g>
<g>
</g>
<g>
</g>
<g>
</g>
<g>
</g>
<g>
</g>
<g>
</g>
<g>
</g>
<g>
</g>
<g>
</g>
</svg>
