<?xml version="1.0" encoding="iso-8859-1"?>
<!-- Generator: Adobe Illustrator 19.0.0, SVG Export Plug-In . SVG Version: 6.00 Build 0)  -->
<svg version="1.1" id="Capa_1" xmlns="http://www.w3.org/2000/svg" xmlns:xlink="http://www.w3.org/1999/xlink" x="0px" y="0px"
	 viewBox="0 0 512 512" style="enable-background:new 0 0 512 512;" xml:space="preserve">
<g>
	<g>
		<path d="M497,390h-75v-90h45c3.978,0,7.793-1.581,10.606-4.394c18.313-18.313,29.247-50.315,29.247-85.606
			c0-35.291-10.933-67.293-29.247-85.606C474.793,121.581,470.978,120,467,120h-45V90h15c41.355,0,75-33.645,75-75
			c0-8.284-6.716-15-15-15h-90c-8.284,0-15,6.716-15,15v105h-75c-6.067,0-11.537,3.655-13.858,9.26
			c-2.321,5.605-1.038,12.057,3.252,16.347c12.62,12.62,20.459,37.294,20.459,64.394s-7.84,51.773-20.459,64.394
			c-4.29,4.29-5.574,10.742-3.252,16.347C305.464,296.347,310.933,300,317,300h75v90h-90v-15c0-24.813-20.187-45-45-45h-15v-15
			c0-24.813-20.187-45-45-45h-16v-30h46c3.246,0,6.403-1.053,9-3c18.112-13.584,28.5-34.36,28.5-57s-10.388-43.416-28.5-57
			c-2.597-1.947-5.754-3-9-3h-46V90h16c41.355,0,75-33.645,75-75c0-8.284-6.716-15-15-15h-91c-8.284,0-15,6.716-15,15v105H75
			c-6.457,0-12.188,4.131-14.23,10.256S60.835,143.126,66,147c10.486,7.864,16.5,19.893,16.5,33s-6.014,25.136-16.5,33
			c-5.165,3.874-7.272,10.618-5.23,16.744C62.811,235.869,68.543,240,75,240h76v30h-16c-24.813,0-45,20.187-45,45v15H75
			c-24.813,0-45,20.187-45,45v15H15c-5.505,0-10.567,3.015-13.189,7.855c-2.622,4.84-2.382,10.728,0.625,15.338l60,92
			C65.205,509.44,69.931,512,75,512h362c5.069,0,9.795-2.56,12.564-6.806l60-92c3.007-4.611,3.247-10.498,0.625-15.338
			C507.567,393.015,502.505,390,497,390z M422,30h57.43c-6.191,17.461-22.874,30-42.43,30h-15V30z M181,30h58.43
			c-6.191,17.461-22.874,30-42.43,30h-16V30z M344.807,270c7.738-16.989,12.046-37.846,12.046-60s-4.308-43.011-12.046-60H460.23
			c10.353,13.468,16.623,35.764,16.623,60c0,24.236-6.27,46.532-16.623,60H344.807z M105.955,210c4.272-9.229,6.545-19.411,6.545-30
			s-2.273-20.771-6.545-30h115.618c8.267,7.761,12.927,18.463,12.927,30s-4.66,22.239-12.927,30H105.955z M120,315
			c0-8.271,6.729-15,15-15h62c8.271,0,15,6.729,15,15v15h-92V315z M60,375c0-8.271,6.729-15,15-15h182c8.271,0,15,6.729,15,15v15H60
			V375z M428.874,482H83.125L42.69,420H45h424.309L428.874,482z"/>
	</g>
</g>
<g>
</g>
<g>
</g>
<g>
</g>
<g>
</g>
<g>
</g>
<g>
</g>
<g>
</g>
<g>
</g>
<g>
</g>
<g>
</g>
<g>
</g>
<g>
</g>
<g>
</g>
<g>
</g>
<g>
</g>
</svg>
